<svg width="20" height="16" viewBox="0 0 20 16" fill="none" xmlns="http://www.w3.org/2000/svg">
<path d="M0.5 2.62109L8.58887 10.7119C8.93888 11.0622 9.40686 11.2695 9.90137 11.2949C10.396 11.3203 10.8825 11.1613 11.2666 10.8486L11.2764 10.8408L11.2861 10.832L11.4004 10.7285L11.4092 10.7207L11.4189 10.7119L19.5 2.62891V14C19.5001 14.3784 19.3569 14.743 19.0996 15.0205C18.8429 15.2972 18.4915 15.4661 18.1152 15.4951L17.9834 15.5H2L1.8584 15.4932C1.53145 15.4623 1.22221 15.3247 0.979492 15.0996C0.736788 14.8745 0.575866 14.5767 0.520508 14.2529L0.503906 14.1123L0.5 13.9834V2.62109ZM17.3887 0.5L10.0049 7.88281L2.62109 0.5H17.3887Z" fill="#CEB372" stroke="#CEB372"/>
</svg>
