<svg width="20" height="20" viewBox="0 0 20 20" fill="none" xmlns="http://www.w3.org/2000/svg">
<path d="M17.3896 2.67188L16.9443 2.62305C16.158 2.53636 15.3673 2.4953 14.5762 2.5C13.9802 2.46033 13.3824 2.54958 12.8242 2.7627C12.2601 2.97812 11.7496 3.31458 11.3291 3.74805C10.9087 4.18149 10.5888 4.70206 10.3906 5.27246C10.1969 5.83033 10.1255 6.42299 10.1797 7.01074V8.75H7.58008V12.75H10.1797V19.5H1.09961C0.94062 19.4999 0.788211 19.4366 0.675781 19.3242C0.563353 19.2118 0.500103 19.0594 0.5 18.9004V1.09961C0.500103 0.940621 0.563351 0.788211 0.675781 0.675781C0.788211 0.563351 0.940621 0.500103 1.09961 0.5H18.9004C18.9791 0.500051 19.0572 0.515795 19.1299 0.545898C19.2026 0.576048 19.2686 0.620147 19.3242 0.675781C19.3799 0.731415 19.424 0.797442 19.4541 0.870117C19.4842 0.942791 19.4999 1.02095 19.5 1.09961V18.9004C19.4999 18.9791 19.4842 19.0572 19.4541 19.1299C19.4239 19.2026 19.3799 19.2686 19.3242 19.3242C19.2686 19.3799 19.2026 19.4239 19.1299 19.4541C19.0572 19.4842 18.9791 19.4999 18.9004 19.5H14.2998V12.7197H16.8496L16.9062 12.2842L17.2959 9.28418L17.3691 8.71973H14.2998V7.29004C14.2998 6.87648 14.3632 6.66609 14.46 6.55078C14.5405 6.45498 14.7368 6.32034 15.2998 6.32031H17.3896V2.67188Z" fill="#CEB372" stroke="#CEB372"/>
</svg>
