<svg width="20" height="14" viewBox="0 0 20 14" fill="none" xmlns="http://www.w3.org/2000/svg">
<path d="M7.5 10.8662L8.25 10.4326L13.4404 7.43262L14.1895 7L13.4404 6.56738L8.25 3.56738L7.5 3.13379V10.8662ZM0.55957 7.82227L0.558594 7.80469L0.5 6.98047C0.500955 4.81422 0.661235 3.26316 0.922852 2.30078L0.921875 2.2998C1.11267 1.61669 1.51891 1.18172 2.16992 0.962891L2.30371 0.921875C2.71168 0.809118 3.51714 0.719436 4.84277 0.65918H4.84668C6.13792 0.589651 7.31932 0.55957 8.41016 0.55957H8.42871L10.0156 0.5C12.0982 0.500199 13.7826 0.540196 15.0713 0.614258C16.2129 0.67987 17.0168 0.770478 17.5078 0.875977L17.6992 0.922852C18.3827 1.11357 18.8182 1.5187 19.0371 2.16992L19.0781 2.30371C19.1952 2.72725 19.2827 3.31946 19.3418 4.10742V4.11328C19.4107 4.90092 19.4404 5.57669 19.4404 6.16016V6.17773L19.4414 6.19531L19.5 7.01758C19.4991 9.18295 19.3394 10.7334 19.0781 11.6963C18.8878 12.3815 18.4822 12.8179 17.8301 13.0371L17.6963 13.0781C17.2883 13.1909 16.4829 13.2806 15.1572 13.3408H15.1533C13.8621 13.4103 12.6807 13.4404 11.5898 13.4404H11.5713L9.9834 13.499C7.90128 13.4988 6.2172 13.4598 4.92871 13.3857C3.62416 13.3108 2.76042 13.2021 2.30078 13.0771C1.61729 12.8864 1.18179 12.4813 0.962891 11.8301L0.921875 11.6963C0.804774 11.2728 0.7173 10.6805 0.658203 9.89258V9.88672L0.613281 9.31641C0.576002 8.76686 0.55957 8.27743 0.55957 7.83984V7.82227Z" fill="#CEB372" stroke="#CEB372"/>
</svg>
